<svg xmlns="http://www.w3.org/2000/svg" width="655" height="652" viewBox="0 0 655 652" version="1.1"><path d="M 122.376 2.250 C 122.702 3.488, 138.208 44.325, 156.834 93 C 175.460 141.675, 190.651 181.578, 190.592 181.674 C 190.533 181.770, 147.738 168.694, 95.492 152.616 L 0.500 123.383 0.245 224.691 C 0.105 280.411, 0.105 371.618, 0.245 427.372 L 0.500 528.745 90 494.562 C 139.225 475.761, 179.633 460.694, 179.796 461.079 C 179.959 461.463, 167.022 504.164, 151.046 555.970 C 135.071 607.775, 122 650.575, 122 651.081 C 122 651.637, 202.036 652, 324.500 652 C 435.875 652, 527 651.863, 527 651.696 C 527 651.529, 511.287 610.241, 492.083 559.946 C 472.879 509.651, 457.276 468.391, 457.410 468.257 C 457.544 468.123, 501.944 481.669, 556.077 498.361 C 610.210 515.052, 654.837 528.523, 655.250 528.295 C 655.663 528.068, 656 436.555, 656 324.933 C 656 131.907, 655.914 122.035, 654.250 123.052 C 652.543 124.094, 467.655 194.904, 467.342 194.635 C 467.255 194.561, 480.640 150.850, 497.085 97.500 C 513.531 44.150, 526.989 0.388, 526.993 0.250 C 526.997 0.112, 435.826 0, 324.392 0 L 121.783 0 122.376 2.250 M 125 2.487 C 125 2.754, 140.570 43.734, 159.600 93.553 C 178.630 143.372, 193.958 184.376, 193.661 184.672 C 193.364 184.969, 150.119 171.964, 97.561 155.772 L 2 126.331 2 325.774 L 2 525.217 4.250 524.608 C 5.487 524.273, 46.325 508.759, 95 490.132 C 143.675 471.506, 183.642 456.385, 183.815 456.531 C 183.988 456.677, 170.780 500.072, 154.464 552.964 C 138.148 605.857, 124.995 649.329, 125.235 649.569 C 125.475 649.809, 215.234 649.891, 324.698 649.752 L 523.725 649.500 488.399 557.047 C 468.970 506.197, 453.169 464.513, 453.287 464.414 C 453.404 464.315, 498.387 478.067, 553.250 494.974 L 653 525.715 653 326.358 C 653 216.711, 652.680 127, 652.289 127 C 651.898 127, 609.576 143.028, 558.240 162.618 C 506.904 182.208, 464.679 198.012, 464.405 197.739 C 464.029 197.363, 521.340 9.488, 523.733 3.253 C 524.117 2.252, 484.152 2, 324.607 2 C 214.823 2, 125 2.219, 125 2.487 M 0.490 326 C 0.490 437.925, 0.607 483.712, 0.750 427.750 C 0.893 371.787, 0.893 280.212, 0.750 224.250 C 0.607 168.287, 0.490 214.075, 0.490 326" stroke="none" fill="#577932" fill-rule="evenodd"/><path d="M 125 2.487 C 125 2.754, 140.570 43.734, 159.600 93.553 C 178.630 143.372, 193.958 184.376, 193.661 184.672 C 193.364 184.969, 150.119 171.964, 97.561 155.772 L 2 126.331 2 325.774 L 2 525.217 4.250 524.608 C 5.487 524.273, 46.325 508.759, 95 490.132 C 143.675 471.506, 183.642 456.385, 183.815 456.531 C 183.988 456.677, 170.780 500.072, 154.464 552.964 C 138.148 605.857, 124.995 649.329, 125.235 649.569 C 125.475 649.809, 215.234 649.891, 324.698 649.752 L 523.725 649.500 488.399 557.047 C 468.970 506.197, 453.169 464.513, 453.287 464.414 C 453.404 464.315, 498.387 478.067, 553.250 494.974 L 653 525.715 653 326.358 C 653 216.711, 652.680 127, 652.289 127 C 651.898 127, 609.576 143.028, 558.240 162.618 C 506.904 182.208, 464.679 198.012, 464.405 197.739 C 464.029 197.363, 521.340 9.488, 523.733 3.253 C 524.117 2.252, 484.152 2, 324.607 2 C 214.823 2, 125 2.219, 125 2.487" stroke="none" fill="#fb0404" fill-rule="evenodd"/></svg>