<svg xmlns="http://www.w3.org/2000/svg" width="655" height="652" viewBox="0 0 655 652" version="1.1"><path d="M 122.376 2.250 C 122.702 3.488, 138.208 44.325, 156.834 93 C 175.460 141.675, 190.651 181.578, 190.592 181.674 C 190.533 181.770, 147.738 168.694, 95.492 152.616 L 0.500 123.383 0.245 224.691 C 0.105 280.411, 0.105 371.618, 0.245 427.372 L 0.500 528.745 90 494.562 C 139.225 475.761, 179.633 460.694, 179.796 461.079 C 179.959 461.463, 167.022 504.164, 151.046 555.970 C 135.071 607.775, 122 650.575, 122 651.081 C 122 651.637, 202.036 652, 324.500 652 C 435.875 652, 527 651.863, 527 651.696 C 527 651.529, 511.287 610.241, 492.083 559.946 C 472.879 509.651, 457.276 468.391, 457.410 468.257 C 457.544 468.123, 501.944 481.669, 556.077 498.361 C 610.210 515.052, 654.837 528.523, 655.250 528.295 C 655.663 528.068, 656 436.555, 656 324.933 C 656 131.907, 655.914 122.035, 654.250 123.052 C 652.543 124.094, 467.655 194.904, 467.342 194.635 C 467.255 194.561, 480.640 150.850, 497.085 97.500 C 513.531 44.150, 526.989 0.388, 526.993 0.250 C 526.997 0.112, 435.826 0, 324.392 0 L 121.783 0 122.376 2.250 M 125 2.490 C 125 2.759, 140.565 43.744, 159.589 93.567 C 178.613 143.391, 193.939 184.394, 193.648 184.686 C 193.356 184.977, 150.116 171.961, 97.559 155.760 L 2 126.305 2 325.761 L 2 525.217 4.250 524.615 C 5.487 524.284, 46.325 508.772, 95 490.144 C 143.675 471.517, 183.639 456.390, 183.809 456.530 C 183.978 456.670, 170.770 500.062, 154.456 552.956 C 138.143 605.851, 124.993 649.326, 125.234 649.567 C 125.474 649.808, 215.237 649.891, 324.706 649.752 L 523.741 649.500 488.409 557.045 C 468.976 506.195, 453.172 464.515, 453.288 464.424 C 453.405 464.332, 498.387 478.082, 553.250 494.978 L 653 525.698 653 326.349 C 653 216.707, 652.682 127, 652.292 127 C 651.903 127, 609.575 143.022, 558.231 162.605 C 506.886 182.188, 464.657 197.991, 464.388 197.722 C 464.022 197.355, 521.237 9.894, 523.742 3.250 C 524.119 2.253, 483.877 2, 324.607 2 C 214.823 2, 125 2.220, 125 2.490 M 0.490 326 C 0.490 437.925, 0.607 483.712, 0.750 427.750 C 0.893 371.787, 0.893 280.212, 0.750 224.250 C 0.607 168.287, 0.490 214.075, 0.490 326" stroke="none" fill="#2c548d" fill-rule="evenodd"/><path d="M 125 2.490 C 125 2.759, 140.565 43.744, 159.589 93.567 C 178.613 143.391, 193.939 184.394, 193.648 184.686 C 193.356 184.977, 150.116 171.961, 97.559 155.760 L 2 126.305 2 325.761 L 2 525.217 4.250 524.615 C 5.487 524.284, 46.325 508.772, 95 490.144 C 143.675 471.517, 183.639 456.390, 183.809 456.530 C 183.978 456.670, 170.770 500.062, 154.456 552.956 C 138.143 605.851, 124.993 649.326, 125.234 649.567 C 125.474 649.808, 215.237 649.891, 324.706 649.752 L 523.741 649.500 488.409 557.045 C 468.976 506.195, 453.172 464.515, 453.288 464.424 C 453.405 464.332, 498.387 478.082, 553.250 494.978 L 653 525.698 653 326.349 C 653 216.707, 652.682 127, 652.292 127 C 651.903 127, 609.575 143.022, 558.231 162.605 C 506.886 182.188, 464.657 197.991, 464.388 197.722 C 464.022 197.355, 521.237 9.894, 523.742 3.250 C 524.119 2.253, 483.877 2, 324.607 2 C 214.823 2, 125 2.220, 125 2.490" stroke="none" fill="#4373c3" fill-rule="evenodd"/></svg>